HIERARCHY
ROOT Hips
{
	OFFSET 0.00000 0.00000 0.00000
	CHANNELS 6 Xposition Yposition Zposition Zrotation Yrotation Xrotation 
	JOINT LHipJoint
	{
		OFFSET 0 0 0
		CHANNELS 3 Zrotation Yrotation Xrotation
		JOINT LeftUpLeg
		{
			OFFSET 1.37590 -1.78394 0.89329
			CHANNELS 3 Zrotation Yrotation Xrotation
			JOINT LeftLeg
			{
				OFFSET 2.47928 -6.81178 0.00000
				CHANNELS 3 Zrotation Yrotation Xrotation
				JOINT LeftFoot
				{
					OFFSET 2.63345 -7.23535 0.00000
					CHANNELS 3 Zrotation Yrotation Xrotation
					JOINT LeftToeBase
					{
						OFFSET 0.23938 -0.65768 2.27012
						CHANNELS 3 Zrotation Yrotation Xrotation
						End Site
						{
							OFFSET 0.00000 -0.00000 1.18363
						}
					}
				}
			}
		}
	}
	JOINT RHipJoint
	{
		OFFSET 0 0 0
		CHANNELS 3 Zrotation Yrotation Xrotation
		JOINT RightUpLeg
		{
			OFFSET -1.33617 -1.78394 0.89329
			CHANNELS 3 Zrotation Yrotation Xrotation
			JOINT RightLeg
			{
				OFFSET -2.56922 -7.05888 0.00000
				CHANNELS 3 Zrotation Yrotation Xrotation
				JOINT RightFoot
				{
					OFFSET -2.56568 -7.04915 0.00000
					CHANNELS 3 Zrotation Yrotation Xrotation
					JOINT RightToeBase
					{
						OFFSET -0.27533 -0.75646 2.18105
						CHANNELS 3 Zrotation Yrotation Xrotation
						End Site
						{
							OFFSET -0.00000 -0.00000 1.15233
						}
					}
				}
			}
		}
	}
	JOINT LowerBack
	{
		OFFSET 0 0 0
		CHANNELS 3 Zrotation Yrotation Xrotation
		JOINT Spine
		{
			OFFSET 0.06190 2.15152 -0.00935
			CHANNELS 3 Zrotation Yrotation Xrotation
			JOINT Spine1
			{
				OFFSET 0.06334 2.15332 0.00872
				CHANNELS 3 Zrotation Yrotation Xrotation
				JOINT Neck
				{
					OFFSET 0 0 0
					CHANNELS 3 Zrotation Yrotation Xrotation
					JOINT Neck1
					{
						OFFSET -0.04202 1.66908 0.23524
						CHANNELS 3 Zrotation Yrotation Xrotation
						JOINT Head
						{
							OFFSET 0.07510 1.69357 -0.24440
							CHANNELS 3 Zrotation Yrotation Xrotation
							End Site
							{
								OFFSET 0.02556 1.71719 -0.11000
							}
						}
					}
				}
				JOINT LeftShoulder
				{
					OFFSET 0 0 0
					CHANNELS 3 Zrotation Yrotation Xrotation
					JOINT LeftArm
					{
						OFFSET 3.67168 1.26306 -0.41342
						CHANNELS 3 Zrotation Yrotation Xrotation
						JOINT LeftForeArm
						{
							OFFSET 4.68510 -0.00000 -0.00000
							CHANNELS 3 Zrotation Yrotation Xrotation
							JOINT LeftHand
							{
								OFFSET 3.39626 -0.00000 -0.00000
								CHANNELS 3 Zrotation Yrotation Xrotation
								JOINT LeftFingerBase
								{
									OFFSET 0 0 0
									CHANNELS 3 Zrotation Yrotation Xrotation
									JOINT LeftHandIndex1
									{
										OFFSET 0.48608 -0.00000 -0.00000
										CHANNELS 3 Zrotation Yrotation Xrotation
										End Site
										{
											OFFSET 0.39189 -0.00000 -0.00000
										}
									}
								}
								JOINT LThumb
								{
									OFFSET 0 0 0
									CHANNELS 3 Zrotation Yrotation Xrotation
									End Site
									{
										OFFSET 0.39787 -0.00000 0.39787
									}
								}
							}
						}
					}
				}
				JOINT RightShoulder
				{
					OFFSET 0 0 0
					CHANNELS 3 Zrotation Yrotation Xrotation
					JOINT RightArm
					{
						OFFSET -3.04136 1.42992 -0.76390
						CHANNELS 3 Zrotation Yrotation Xrotation
						JOINT RightForeArm
						{
							OFFSET -5.55576 -0.00000 -0.00000
							CHANNELS 3 Zrotation Yrotation Xrotation
							JOINT RightHand
							{
								OFFSET -3.32774 -0.00000 -0.00000
								CHANNELS 3 Zrotation Yrotation Xrotation
								JOINT RightFingerBase
								{
									OFFSET 0 0 0
									CHANNELS 3 Zrotation Yrotation Xrotation
									JOINT RightHandIndex1
									{
										OFFSET -0.50763 -0.00000 -0.00000
										CHANNELS 3 Zrotation Yrotation Xrotation
										End Site
										{
											OFFSET -0.40926 -0.00000 -0.00000
										}
									}
								}
								JOINT RThumb
								{
									OFFSET 0 0 0
									CHANNELS 3 Zrotation Yrotation Xrotation
									End Site
									{
										OFFSET -0.41551 -0.00000 0.41551
									}
								}
							}
						}
					}
				}
			}
		}
	}
}
MOTION
Frames: 9
Frame Time: .0083333
-6.0293 17.7421 1.2329 -491.9490 -81.2557 498.1580 0.0000 0.0000 0.0000 -6.4253 -11.3760 -27.2746 1.2888 7.1934 20.2896 -0.1429 6.7241 -3.2134 0.0108 -0.6725 -1.8482 0.0000 0.0000 0.0000 24.4758 1.9229 -4.3351 -4.6890 -13.0247 39.4611 0.5573 -13.7059 -9.4401 -0.1217 2.2490 -6.1944 11.6144 25.1628 26.4809 12.1451 40.8542 11.6303 177.7405 57.6990 4.3310 16.6229 28.3888 26.3400 -43.7122 78.3968 -38.3012 -13.9550 64.2470 121.6070 0.0000 0.0000 0.0000 163.5480 -68.5022 -50.6994 90.6928 -59.9982 -60.6000 -0.0000 0.0000 -56.1963 12.1374 51.4607 9.5488 -7.1250 0.0000 -0.0000 -61.0585 75.2524 -47.0291 0.0000 0.0000 0.0000 -97.0488 27.2574 56.0814 -72.9799 58.8766 -45.3158 0.0000 -0.0000 -62.9668 -23.5817 -60.5564 20.8133 7.1250 -0.0000 -0.0000 96.3007 79.6056 106.9081
-6.2069 17.7504 1.2631 -489.3480 -81.8550 495.3950 0.0000 0.0000 0.0000 -7.1606 -11.6593 -26.8228 1.3436 7.3388 20.7231 -0.1103 5.9342 -3.0376 0.0066 -0.5233 -1.4380 0.0000 0.0000 0.0000 24.2590 1.8606 -4.9015 -4.9951 -13.3782 40.8013 0.6281 -14.2022 -8.5304 -0.0931 1.9683 -5.4181 11.3540 24.9294 26.4475 12.0711 40.7357 11.6817 177.8084 57.1530 4.4090 16.5291 28.4696 26.4278 -44.0820 78.3870 -38.6929 -15.1300 64.7950 120.4080 -0.0000 0.0000 0.0000 160.5273 -68.7599 -47.6553 91.7780 -59.9881 -61.5397 -0.0000 0.0000 -56.2767 12.1769 51.5533 9.5924 -7.1250 0.0000 -0.0000 -61.3660 75.3035 -47.3540 -0.0000 0.0000 0.0000 -96.7694 27.7294 56.2824 -71.4442 58.6582 -44.0026 0.0000 -0.0000 -63.1676 -24.4442 -60.9503 21.6712 7.1250 -0.0000 -0.0000 99.5720 79.6915 110.0532
-6.3838 17.7594 1.2933 -486.1880 -82.4504 492.0740 0.0000 0.0000 0.0000 -7.8983 -11.9409 -26.3304 1.3948 7.4717 21.1206 -0.0818 5.1549 -2.8932 0.0033 -0.3724 -1.0232 0.0000 0.0000 0.0000 24.0429 1.7897 -5.5240 -5.3083 -13.7228 42.1382 0.6868 -14.6351 -7.6483 -0.0661 1.6593 -4.5650 11.0954 24.6880 26.4202 11.9988 40.6165 11.7353 177.8741 56.6090 4.4860 16.4355 28.5555 26.5195 -44.4918 78.3813 -39.1229 -16.3540 65.3240 119.1490 -0.0000 -0.0000 0.0000 157.2301 -68.9676 -44.2838 92.9257 -59.9676 -62.5334 -0.0000 0.0000 -56.3283 12.2482 51.6643 9.6638 -7.1250 0.0000 -0.0000 -61.7236 75.3733 -47.7438 -0.0000 -0.0000 0.0000 -96.4901 28.2392 56.4844 -70.0617 58.4433 -42.8232 0.0000 -0.0000 -63.3947 -25.3182 -61.3414 22.5448 7.1250 -0.0000 -0.0000 102.8814 79.7390 113.2396
-6.5598 17.7690 1.3234 -482.3590 -83.0315 488.0850 0.0000 0.0000 0.0000 -8.6372 -12.2177 -25.7963 1.4417 7.5907 21.4777 -0.0575 4.3902 -2.7798 0.0012 -0.2202 -0.6049 0.0000 0.0000 0.0000 23.8256 1.7112 -6.1996 -5.6259 -14.0558 43.4613 0.7332 -15.0006 -6.8036 -0.0427 1.3333 -3.6663 10.8386 24.4398 26.3985 11.9277 40.4972 11.7906 177.9381 56.0700 4.5630 16.3429 28.6464 26.6142 -44.9354 78.3792 -39.5853 -17.6200 65.8300 117.8390 0.0000 -0.0000 0.0000 153.6757 -69.1048 -40.6080 94.1197 -59.9358 -63.5670 -0.0000 0.0000 -56.3459 12.3432 51.7972 9.7571 -7.1250 0.0000 -0.0000 -62.1511 75.4595 -48.2140 0.0000 -0.0000 0.0000 -96.2128 28.7876 56.6905 -68.8405 58.2388 -41.7837 0.0000 -0.0000 -63.6547 -26.2092 -61.7108 23.4352 7.1250 -0.0000 -0.0000 106.1357 79.7580 116.3657
-6.7351 17.7792 1.3533 -477.7390 -83.5833 483.3080 0.0000 0.0000 0.0000 -9.3737 -12.4842 -25.2241 1.4834 7.6951 21.7918 -0.0370 3.6431 -2.6970 0.0001 -0.0687 -0.1888 0.0000 0.0000 0.0000 23.6064 1.6299 -6.9269 -5.9455 -14.3753 44.7625 0.7676 -15.2970 -6.0076 -0.0234 0.9868 -2.7124 10.5815 24.1874 26.3797 11.8563 40.3779 11.8465 178.0011 55.5360 4.6400 16.2528 28.7427 26.7118 -45.4080 78.3797 -40.0746 -18.9210 66.3100 116.4850 0.0000 0.0000 0.0000 149.9047 -69.1510 -36.6663 95.3442 -59.8918 -64.6265 -0.0000 0.0000 -56.3288 12.4759 51.9524 9.8838 -7.1250 0.0000 -0.0000 -62.6467 75.5673 -48.7691 0.0000 0.0000 0.0000 -95.9353 29.3759 56.8961 -67.7801 58.0497 -40.8830 0.0000 -0.0000 -63.9300 -27.0581 -62.0821 24.2924 7.1250 -0.0000 -0.0000 109.2964 79.7273 119.4185
-6.9091 17.7899 1.3830 -472.1900 -84.0919 477.6040 0.0000 0.0000 0.0000 -10.1068 -12.7376 -24.6167 1.5200 7.7851 22.0632 -0.0200 2.9131 -2.6416 0.0001 0.0771 0.2119 0.0000 0.0000 0.0000 23.3837 1.5496 -7.7011 -6.2635 -14.6789 46.0302 0.7908 -15.5243 -5.2687 -0.0094 0.6261 -1.7206 10.3260 23.9313 26.3666 11.7865 40.2609 11.9044 178.0629 55.0120 4.7170 16.1622 28.8412 26.8105 -45.9140 78.3841 -40.5965 -20.2560 66.7670 115.0890 0.0000 -0.0000 0.0000 145.9733 -69.0894 -32.5183 96.5808 -59.8357 -65.6960 -0.0000 0.0000 -56.2758 12.6215 52.1217 10.0232 -7.1250 0.0000 -0.0000 -63.1976 75.6836 -49.3845 0.0000 -0.0000 0.0000 -95.6614 30.0088 57.1048 -66.8848 57.8816 -40.1240 0.0000 -0.0000 -64.2290 -27.9429 -62.4302 25.1829 7.1250 -0.0000 -0.0000 112.3930 79.6776 122.3956
-7.0821 17.8010 1.4124 -465.5920 -84.5379 470.8560 0.0000 0.0000 0.0000 -10.8331 -12.9736 -23.9780 1.5511 7.8607 22.2917 -0.0062 2.2010 -2.6134 0.0011 0.2175 0.5976 0.0000 0.0000 0.0000 23.1574 1.4729 -8.5200 -6.5773 -14.9654 47.2569 0.8039 -15.6846 -4.5961 -0.0016 0.2548 -0.7002 10.0712 23.6733 26.3579 11.7177 40.1466 11.9636 178.1240 54.4990 4.7940 16.0730 28.9425 26.9106 -46.4477 78.3908 -41.1445 -21.6170 67.1960 113.6580 0.0000 -0.0000 0.0000 141.9494 -68.9077 -28.2332 97.8145 -59.7680 -66.7623 -0.0000 0.0000 -56.1901 12.7439 52.3346 10.1501 -7.1250 0.0000 -0.0000 -63.9396 75.8045 -50.1790 0.0000 -0.0000 0.0000 -95.3897 30.6860 57.3128 -66.1554 57.7387 -39.5067 0.0000 -0.0000 -64.5421 -28.8238 -62.7576 26.0704 7.1250 -0.0000 -0.0000 115.3490 79.6035 125.2324
-7.2540 17.8125 1.4416 -457.9310 -84.8998 463.0500 0.0000 0.0000 0.0000 -11.5502 -13.1877 -23.3083 1.5763 7.9213 22.4754 0.0047 1.5070 -2.6131 0.0030 0.3522 0.9678 0.0000 0.0000 0.0000 22.9262 1.4027 -9.3772 -6.8830 -15.2326 48.4306 0.8082 -15.7794 -3.9949 -0.0003 -0.1186 0.3258 9.8174 23.4154 26.3542 11.6504 40.0367 12.0247 178.1843 53.9980 4.8700 15.9851 29.0462 27.0113 -47.0083 78.4006 -41.7183 -22.9930 67.5960 112.2050 0.0000 -0.0000 0.0000 137.9054 -68.5970 -23.8839 99.0253 -59.6900 -67.8080 -0.0000 0.0000 -56.0727 12.8900 52.5620 10.2987 -7.1250 0.0000 -0.0000 -64.7368 75.9359 -51.0384 0.0000 -0.0000 0.0000 -95.1224 31.4091 57.5186 -65.5952 57.6254 -39.0333 0.0000 -0.0000 -64.8665 -29.6712 -63.0773 26.9295 7.1250 -0.0000 -0.0000 118.1407 79.4971 127.9179
-7.4246 17.8243 1.4704 -449.3000 -85.1562 454.2780 0.0000 0.0000 0.0000 -12.2531 -13.3785 -22.6137 1.5960 7.9683 22.6177 0.0131 0.8291 -2.6392 0.0056 0.4851 1.3329 0.0000 0.0000 0.0000 22.6918 1.3412 -10.2699 -7.1771 -15.4792 49.5410 0.8052 -15.8165 -3.4664 -0.0057 -0.4887 1.3427 9.5667 23.1586 26.3556 11.5850 39.9313 12.0869 178.2432 53.5130 4.9460 15.8989 29.1514 27.1124 -47.5949 78.4127 -42.3165 -24.3790 67.9660 110.7370 0.0000 -0.0000 0.0000 133.9226 -68.1523 -19.5522 100.1986 -59.6033 -68.8205 -0.0000 0.0000 -55.9306 13.1241 52.7734 10.5170 -7.1250 0.0000 -0.0000 -65.4474 76.0927 -51.8504 0.0000 -0.0000 0.0000 -94.8590 32.1795 57.7199 -65.2023 57.5440 -38.7016 0.0000 -0.0000 -65.1962 -30.4542 -63.3900 27.7304 7.1250 -0.0000 -0.0000 120.6945 79.3599 130.3864
